<svg width="100" height="25" viewBox="0 0 100 25" fill="none" xmlns="http://www.w3.org/2000/svg">
<path d="M11.55,13.68v3.51c0,2.79-1.47,4.89-5.79,4.89C4.23,22.08,0,21.81,0,17.61V5.13C0,1.83,1.68,0,5.91,0c3.33,0,5.64,1.35,5.64,4.23V8.16H7.71V5.49C7.71,3.87,7.44,3,5.7,3c-1.5,0-1.8.93-1.8,2.31V16.65c0,1.38.3,2.4,1.92,2.4s1.89-1,1.89-2.61V13.68Z" fill="white"/>
<path d="M28.71,21.63s.27-14,.36-18.36L25.65,21.63H22L18.51,3.27s.21,13.14.3,18.36H15V.45h6.36l2.49,14.82L26.34.45h6.27V21.63Z" fill="white"/>
<path d="M44.7.45c3.54,0,3.6,2.52,3.6,4.77V8c0,3.66-.57,4.8-4.2,4.8H40.8v8.82H36.87V.45ZM40.8,9.78h2c1.56,0,1.68-.57,1.68-1.89V5.67c0-1.41-.12-2.1-1.68-2.1h-2Z" fill="white"/>
<path d="M51.24,21.63V.45h3.9v18h5.73v3.21Z" fill="white"/>
<path d="M71,21.63l-2.49-7.35-2.52,7.35H61.71l4.68-11.28L62.22.45h4.26l2,6,2-6h4.26l-4.23,10,4.68,11.16Z" fill="white"/>
</svg>